<svg xmlns="http://www.w3.org/2000/svg" width="1592" height="362" viewBox="0 0 1592 362" fill="none"><ellipse cx="796" cy="128" rx="523" ry="82" stroke="#353535" stroke-width="2" stroke-linecap="round" stroke-linejoin="round" stroke-dasharray="1 6"></ellipse><ellipse cx="796" cy="201" rx="795" ry="155" stroke="#353535" stroke-width="2" stroke-linecap="round" stroke-linejoin="round" stroke-dasharray="1 6"></ellipse><circle cx="708" cy="356" r="6" fill="#781E82"></circle><path d="M843.073 76.7038V92.6566C843.073 93.3874 842.684 94.0625 842.051 94.43L827.653 102.809L813.808 110.868L799.527 119.195C798.897 119.563 798.117 119.57 797.48 119.214L783.502 111.404C782.851 111.041 782.449 110.355 782.449 109.612V77.0157C782.449 76.2859 782.838 75.6108 783.47 75.2422L794.008 69.1007C795.382 68.3006 797.108 69.2876 797.108 70.8742V99.1435C797.108 100.729 798.833 101.717 800.207 100.917L826.633 85.5249C827.264 85.1564 827.654 84.4812 827.654 83.7515V70.6579C827.654 69.1049 829.316 68.1137 830.688 68.8477L841.988 74.8926C842.657 75.2506 843.074 75.9457 843.074 76.7028L843.073 76.7038Z" fill="url(#paint0_linear_499_1003)"></path><path d="M797.107 50.9657V63.1321C797.107 64.7019 795.413 65.691 794.039 64.9234L782.449 58.4417L769.336 51.1001C767.963 50.3315 766.268 51.3206 766.268 52.8914V83.0717C766.268 83.8152 766.67 84.4998 767.321 84.8631L779.352 91.5863C780.731 92.357 780.761 94.3278 779.404 95.1395L768.365 101.746C767.731 102.125 766.943 102.137 766.297 101.777L752.35 93.975C751.7 93.6117 751.298 92.9261 751.298 92.1837V41.019C751.298 40.2892 751.686 39.6141 752.318 39.2455L764.02 32.4268C764.651 32.0593 765.429 32.0519 766.066 32.4079L781.22 40.8751L782.449 41.565L796.055 49.1733C796.705 49.5366 797.107 50.2223 797.107 50.9647V50.9657Z" fill="url(#paint1_linear_499_1003)"></path><path d="M843.073 42.0624V57.0586C843.073 57.7884 842.684 58.4635 842.052 58.8321L814.22 75.0557C813.59 75.4233 812.81 75.4306 812.173 75.0736L800.817 68.7242C799.428 67.9472 799.411 65.9606 800.786 65.1594L827.653 49.5059L827.688 49.4891L827.653 49.4723L797.461 32.584C796.824 32.2281 796.045 32.2344 795.414 32.6019L785.548 38.3486C784.175 39.1487 782.449 38.1606 782.449 36.5751V22.8662C782.449 22.1365 782.838 21.4613 783.47 21.0928L794.341 14.757C794.972 14.3895 795.751 14.3822 796.388 14.7392L842.021 40.2701C842.67 40.6334 843.073 41.319 843.073 42.0614V42.0624Z" fill="url(#paint2_linear_499_1003)"></path><path opacity="0.44382" d="M797 155C842.839 155 880 147.837 880 139C880 130.163 842.839 123 797 123C751.16 123 714 130.163 714 139C714 147.837 751.16 155 797 155Z" fill="url(#paint3_radial_499_1003)" fill-opacity="0.65"></path><rect x="372" y="98" width="60" height="60" rx="6" fill="#1D1D1D"></rect><path d="M402.043 107.64C400.34 107.647 398.714 107.793 397.283 108.046C393.067 108.791 392.302 110.349 392.302 113.224V117.021H402.264V118.286H392.302H388.564C385.668 118.286 383.133 120.026 382.34 123.337C381.426 127.131 381.385 129.499 382.34 133.461C383.049 136.41 384.74 138.511 387.635 138.511H391.06V133.96C391.06 130.672 393.905 127.772 397.283 127.772H407.233C410.003 127.772 412.214 125.491 412.214 122.71V113.224C412.214 110.524 409.936 108.496 407.233 108.046C405.522 107.761 403.746 107.632 402.043 107.64ZM396.656 110.693C397.685 110.693 398.525 111.547 398.525 112.597C398.525 113.643 397.685 114.49 396.656 114.49C395.623 114.49 394.787 113.643 394.787 112.597C394.787 111.547 395.623 110.693 396.656 110.693Z" fill="url(#paint4_linear_499_1003)"></path><path d="M413.455 118.284V122.708C413.455 126.137 410.547 129.024 407.232 129.024H397.282C394.556 129.024 392.301 131.356 392.301 134.086V143.571C392.301 146.271 394.649 147.859 397.282 148.633C400.435 149.561 403.459 149.728 407.232 148.633C409.74 147.907 412.213 146.446 412.213 143.571V139.775H402.263V138.509H412.213H417.194C420.089 138.509 421.167 136.49 422.174 133.459C423.214 130.338 423.17 127.338 422.174 123.335C421.459 120.452 420.092 118.284 417.194 118.284H413.455ZM407.859 142.306C408.891 142.306 409.728 143.152 409.728 144.198C409.728 145.248 408.891 146.102 407.859 146.102C406.83 146.102 405.99 145.248 405.99 144.198C405.99 143.152 406.83 142.306 407.859 142.306Z" fill="url(#paint5_linear_499_1003)"></path><rect x="612" width="35" height="35" rx="6" fill="#1D1D1D"></rect><path d="M627.081 4.48155C627.013 4.50437 626.646 4.62261 626.26 4.74914C624.186 5.42746 622.717 6.21364 622.352 6.83594C622.213 7.07449 622.186 7.26741 622.269 7.46032C622.36 7.67813 622.528 7.842 622.989 8.16768C623.205 8.3191 623.572 8.63648 623.81 8.87503C624.951 10.0139 625.505 11.4099 625.443 12.9885C625.372 14.7641 624.54 16.5398 622.947 18.3175C622.391 18.9377 621.821 19.4542 620.726 20.3317C619.813 21.0619 619.317 21.5348 618.979 21.9932C617.944 23.4038 618.22 24.6609 619.801 25.7105C621.194 26.6377 623.651 27.4094 626.544 27.8284C627.515 27.9695 628.612 28.0587 628.876 28.0192L629.06 27.9923L629.351 27.4695C630.819 24.8247 631.562 22.3314 631.651 19.7509C631.691 18.5996 631.545 17.2367 631.299 16.4402C631.253 16.2971 631.22 16.1747 631.226 16.1705C631.23 16.1664 631.641 16.044 632.139 15.8946C634.755 15.1147 637.285 14.5007 639.376 14.1377C639.783 14.0671 640.131 13.9945 640.15 13.9759C640.262 13.8659 639.936 13.3577 639.407 12.8122C637.451 10.7938 633.995 9.25671 629.94 8.60329C629.158 8.47675 629.062 8.43112 628.772 8.04736C628.312 7.4375 627.878 6.3941 627.287 4.4857C627.268 4.42762 627.25 4.42762 627.081 4.48155ZM627.351 5.19928C627.579 5.81951 627.718 6.30698 627.718 6.47915V6.61399L627.525 6.59117C626.48 6.47085 624.812 6.21156 624.457 6.11614C624.366 6.09125 624.314 6.05598 624.331 6.02902C624.358 5.98546 624.713 5.81536 625.766 5.33618C626.75 4.8902 627.123 4.72425 627.152 4.72218C627.164 4.72218 627.254 4.93583 627.351 5.19928ZM625.14 6.50819C626.416 6.77578 627.345 6.94381 627.55 6.94381C627.749 6.94381 627.727 6.9604 626.789 7.53292C626.065 7.97269 625.982 8.01417 625.8 8.01417H625.6L625.065 7.47069C624.416 6.81312 623.976 6.33187 623.976 6.27794C623.976 6.25512 623.989 6.2489 624.007 6.25927C624.024 6.26757 624.536 6.38166 625.14 6.50819ZM624.198 7.11183C624.511 7.47692 624.754 7.78392 624.742 7.79844C624.715 7.82541 623.821 7.60345 623.273 7.43543C622.796 7.28815 622.738 7.23837 622.864 7.07657C622.947 6.9687 623.563 6.45426 623.609 6.45219C623.621 6.45011 623.885 6.74467 624.198 7.11183ZM628.268 7.86897C628.392 8.1656 628.488 8.40623 628.484 8.41038C628.478 8.41452 626.801 8.15523 626.654 8.12619C626.623 8.11997 626.907 7.92705 627.289 7.69472C627.671 7.4624 627.996 7.28608 628.013 7.30475C628.029 7.31927 628.144 7.57234 628.268 7.86897ZM624.613 8.43112C624.646 8.46431 625.047 9.75041 625.028 9.767C625.022 9.77323 624.831 9.55334 624.605 9.27331C624.377 8.99327 624.034 8.60122 623.837 8.39586L623.482 8.02455L624.036 8.21539C624.339 8.32118 624.601 8.41867 624.613 8.43112ZM626.214 8.60329C626.909 8.70286 627.486 8.79206 627.496 8.80243C627.505 8.8128 627.086 9.13847 626.563 9.52845C626.04 9.91636 625.609 10.2296 625.602 10.2234C625.596 10.2171 625.544 10.0553 625.486 9.86242C625.428 9.66951 625.279 9.26916 625.156 8.96838C625.034 8.6676 624.939 8.42282 624.943 8.42282C624.947 8.42282 625.519 8.5058 626.214 8.60329ZM627.961 9.15922C628.115 9.51808 628.175 9.86242 628.2 10.549C628.212 10.9183 628.214 11.219 628.202 11.219C628.189 11.219 627.969 11.1423 627.714 11.051C627.204 10.8664 626.204 10.5366 626.086 10.5138C626.034 10.5034 626.275 10.2731 626.907 9.72759C627.401 9.30235 627.82 8.95593 627.839 8.95593C627.859 8.958 627.913 9.04928 627.961 9.15922ZM629.753 9.24634C630.523 9.40399 631.195 9.54505 631.249 9.55749C631.326 9.57616 631.141 9.69233 630.328 10.1383C629.768 10.4453 629.133 10.7938 628.917 10.9162C628.699 11.0386 628.521 11.1319 628.517 11.1278C628.513 11.1236 628.536 11.0095 628.567 10.8726C628.683 10.3748 628.61 9.75248 628.378 9.25671C628.31 9.11358 628.253 8.98705 628.253 8.97667C628.253 8.94141 628.392 8.9663 629.753 9.24634ZM631.85 10.186C631.811 10.3603 631.726 10.6569 631.658 10.8498C631.51 11.273 630.973 12.3703 630.9 12.3994C630.871 12.4118 630.618 12.2936 630.342 12.1401C630.066 11.9866 629.666 11.7833 629.457 11.6899L629.075 11.5198L630.483 10.6175C631.651 9.86865 631.894 9.72759 631.906 9.79397C631.915 9.83546 631.89 10.0118 631.85 10.186ZM632.879 9.8645C634.34 10.2835 635.881 10.8498 635.792 10.9349C635.773 10.9515 635.582 11.0158 635.369 11.0759C634.267 11.3891 632.734 11.9181 632.016 12.2334C631.794 12.3309 631.602 12.4035 631.591 12.3931C631.581 12.3828 631.668 12.0592 631.786 11.6775C632.016 10.9245 632.284 9.90806 632.284 9.77737C632.284 9.71929 632.305 9.70062 632.357 9.71514C632.394 9.72552 632.628 9.79189 632.879 9.8645ZM626.6 11.3788C626.934 11.4887 627.322 11.636 627.465 11.7086C627.725 11.8393 627.727 11.8414 627.652 11.9223C627.519 12.0695 626.069 13.4199 626.028 13.4345C626.007 13.4428 625.99 13.2374 625.99 12.9408C625.988 12.4263 625.93 11.4991 625.887 11.2917C625.853 11.1402 625.88 11.1423 626.6 11.3788ZM635.873 11.6464C635.553 12.1733 635.028 12.9242 634.649 13.3971C634.261 13.8825 633.441 14.7952 633.394 14.7952C633.375 14.7952 633.257 14.648 633.13 14.4654C632.664 13.7995 632.122 13.2229 631.647 12.8868C631.602 12.8557 631.575 12.8204 631.585 12.8101C631.595 12.7997 632.375 12.5134 633.313 12.1733C635.213 11.4846 636.049 11.2045 636.101 11.2419C636.105 11.2481 636.003 11.4286 635.873 11.6464ZM637.061 11.5572C638.372 12.472 639.264 13.2125 639.588 13.6543C639.669 13.7664 639.729 13.8618 639.721 13.868C639.712 13.8742 639.291 13.9219 638.781 13.9717C636.746 14.1729 635.296 14.3762 634.528 14.5712C634.323 14.6231 634.151 14.6625 634.149 14.6604C634.145 14.6563 634.279 14.4903 634.452 14.2849C635.339 13.2208 636.14 12.1131 636.439 11.5385C636.518 11.3871 636.594 11.2626 636.611 11.2626C636.626 11.2605 636.827 11.3933 637.061 11.5572ZM629.712 12.6918C629.963 12.8267 630.156 12.9511 630.145 12.9719C630.127 13.0092 627.913 14.2206 627.895 14.204C627.89 14.1999 628.005 13.8369 628.15 13.393C628.295 12.9491 628.436 12.4678 628.463 12.3205L628.513 12.0509L628.886 12.25C629.094 12.3599 629.461 12.557 629.712 12.6918ZM627.859 12.7624C627.646 13.5029 627.212 14.4571 627.015 14.6231C626.969 14.6604 626.88 14.6085 626.588 14.3721C626.382 14.2061 626.173 14.0422 626.117 14.0049C626.063 13.9676 626.024 13.9282 626.032 13.9178C626.183 13.7664 627.946 12.3454 627.955 12.3682C627.961 12.3828 627.917 12.5612 627.859 12.7624ZM631.867 14.0505C632.201 14.2725 632.939 14.9342 632.9 14.9757C632.89 14.9861 632.139 15.2308 631.234 15.515C630.33 15.8013 629.322 16.1249 628.994 16.2348C628.664 16.3448 628.395 16.4319 628.392 16.4278C628.388 16.4236 628.619 16.1622 628.903 15.8449C629.643 15.0193 630.405 14.1335 630.674 13.785L630.907 13.4842L631.212 13.6481C631.375 13.7394 631.674 13.9219 631.867 14.0505ZM630.154 13.5755C630.133 13.6025 629.934 13.8556 629.71 14.1397C629.486 14.4219 628.95 15.1105 628.515 15.6685L627.725 16.685L627.698 16.5128C627.648 16.1788 627.469 15.5296 627.368 15.3076L627.266 15.0856L627.768 14.8346C628.287 14.5754 629.367 13.9883 629.874 13.6938C630.193 13.5071 630.214 13.4988 630.154 13.5755ZM625.961 14.8035C626.167 14.9093 626.36 15.0462 626.36 15.0898C626.36 15.1562 625.022 16.1892 624.986 16.1498C624.978 16.1415 625.098 15.9029 625.254 15.6188C625.412 15.3346 625.569 15.0172 625.607 14.9093C625.644 14.8015 625.702 14.7143 625.731 14.7143C625.764 14.7143 625.868 14.7558 625.961 14.8035ZM627.102 16.0751C627.196 16.2556 627.291 16.7638 627.241 16.8094C627.22 16.8281 626.669 17.0895 626.011 17.3902C625.354 17.691 624.501 18.0955 624.109 18.2905C623.719 18.4855 623.422 18.6224 623.451 18.5975C623.48 18.5706 623.91 18.2117 624.408 17.7968C625.37 16.9961 626.467 16.0398 626.669 15.8283L626.789 15.7017L626.907 15.8158C626.974 15.878 627.061 15.9942 627.102 16.0751ZM626.021 16.0647C625.926 16.1498 625.412 16.5999 624.881 17.0604C624.35 17.5189 623.711 18.0748 623.462 18.2926C622.96 18.7303 622.96 18.7303 623.601 17.8943C624.096 17.2471 624.356 17.0065 625.067 16.5294C625.414 16.2971 626.102 15.9092 626.169 15.9092C626.183 15.9071 626.117 15.9797 626.021 16.0647ZM631.006 16.5045C631.033 16.6393 631.064 17.0625 631.079 17.44L631.104 18.1287L630.944 18.054C630.392 17.7989 628.843 16.9256 628.901 16.9028C629.239 16.7679 630.913 16.212 630.931 16.2307C630.946 16.2452 630.979 16.3676 631.006 16.5045ZM629.691 17.7367C630.336 18.1163 630.869 18.4316 630.878 18.4378C630.886 18.444 630.801 18.5146 630.695 18.5934C630.49 18.7448 628.301 19.8753 628.272 19.8463C628.264 19.838 628.293 19.6492 628.336 19.4314C628.426 18.9917 628.507 17.6807 628.467 17.2637C628.455 17.1164 628.459 17.0127 628.48 17.0252C628.502 17.0376 629.046 17.3571 629.691 17.7367ZM627.907 17.4587C627.957 17.8674 627.897 18.6888 627.787 19.1161C627.656 19.6181 627.581 19.8276 627.525 19.8463C627.449 19.8733 626.972 19.4376 626.679 19.0746C626.385 18.7095 625.999 18.0209 626.057 17.9648C626.092 17.9317 627.797 17.2285 627.849 17.2264C627.866 17.2243 627.893 17.3301 627.907 17.4587ZM625.816 18.4855C625.997 18.8589 626.409 19.3982 626.862 19.8546C627.152 20.1471 627.225 20.2425 627.179 20.2715C626.976 20.4084 626.069 20.8337 625.497 21.0577C624.802 21.3315 623.899 21.6427 623.879 21.6178C623.87 21.6095 624.078 21.232 624.339 20.7797C624.905 19.7965 625.621 18.4067 625.621 18.2926C625.621 18.1474 625.681 18.2055 625.816 18.4855ZM624.746 18.5083C624.735 18.5374 624.648 18.7531 624.555 18.9917C624.152 20.0122 623.37 21.3979 623.196 21.3979C623.061 21.3979 622.862 20.591 622.806 19.8152L622.777 19.4252L623.733 18.9419C624.26 18.6764 624.706 18.4585 624.729 18.4585C624.748 18.4565 624.756 18.4793 624.746 18.5083ZM631.131 19.4522C631.135 20.0392 630.888 21.4601 630.757 21.6033C630.703 21.6634 630.096 21.4394 629.55 21.1573C629.06 20.9042 628.256 20.4043 628.256 20.3545C628.256 20.34 628.378 20.2778 628.531 20.2134C628.822 20.0911 630.172 19.3692 630.745 19.0311L631.075 18.8361L631.104 18.9854C631.114 19.0663 631.129 19.28 631.131 19.4522ZM622.122 20.1305C622.178 20.5951 622.321 21.1635 622.499 21.6157C622.572 21.8003 622.624 21.9601 622.615 21.9683C622.545 22.0327 619.672 22.823 619.292 22.8831L619.112 22.9122L619.139 22.7732C619.178 22.5761 619.456 22.0078 619.664 21.7008C619.921 21.3191 620.558 20.6802 620.979 20.3835C621.292 20.1616 622.047 19.7218 622.07 19.7467C622.072 19.7488 622.097 19.921 622.122 20.1305ZM628.639 21.1096C629.527 21.5348 629.863 21.6821 630.288 21.8294L630.614 21.9414L630.409 22.0451C629.245 22.6342 627.187 23.4743 626.654 23.578C626.536 23.6009 626.519 23.5946 626.542 23.5366C626.633 23.298 627.861 20.7611 627.884 20.7611C627.899 20.759 628.241 20.9187 628.639 21.1096ZM627.077 21.0141C627.015 21.3129 626.677 22.2816 626.48 22.7213C626.31 23.103 625.916 23.8477 625.845 23.9182C625.814 23.9494 625.113 23.5532 624.781 23.3167C624.408 23.0512 623.59 22.2629 623.613 22.1903C623.621 22.1633 624.119 21.9725 624.719 21.7651C625.982 21.3294 626.689 21.066 626.895 20.9602C627.094 20.8565 627.111 20.8627 627.077 21.0141ZM630.61 22.3521C630.598 22.4392 630.527 22.8209 630.45 23.2067C630.21 24.4161 629.917 25.2417 629.73 25.2417C629.473 25.2417 627.712 24.8144 627.144 24.6131C626.758 24.4762 626.424 24.3207 626.314 24.2232C626.246 24.163 626.281 24.1423 626.787 23.9348C628.415 23.271 630.293 22.4247 630.496 22.2629C630.614 22.1696 630.633 22.182 630.61 22.3521ZM622.371 22.7213C622.186 23.0512 621.806 23.5967 621.085 24.5717L620.468 25.4014L620.284 25.2686C620.025 25.084 619.614 24.636 619.442 24.3518C619.257 24.0469 619.13 23.6714 619.116 23.3851L619.104 23.1632L619.408 23.1321C619.821 23.0906 620.975 22.852 621.798 22.6363C622.171 22.5388 622.483 22.4641 622.491 22.4703C622.497 22.4786 622.443 22.5907 622.371 22.7213ZM624.161 23.5739C624.366 23.7212 624.648 23.9079 624.793 23.9929L625.057 24.1464L624.939 24.1962C624.872 24.2232 623.916 24.5717 622.81 24.972C620.923 25.6545 620.798 25.6939 620.746 25.6234C620.715 25.5819 620.695 25.5383 620.699 25.5238C620.703 25.5093 621.213 24.8517 621.833 24.0572L622.96 22.6155L623.375 22.962C623.607 23.1549 623.955 23.4266 624.161 23.5739ZM624.625 25.7416C624.213 26.3577 623.864 26.8783 623.852 26.8949C623.821 26.9364 623.161 26.7808 622.667 26.617C622.149 26.4427 621.51 26.1191 621.261 25.9055L621.08 25.7499L621.487 25.64C623.153 25.1857 625.356 24.6028 625.366 24.6111C625.374 24.6131 625.038 25.1255 624.625 25.7416ZM626.609 24.8081C627.49 25.111 628.295 25.2832 629.338 25.3952L629.627 25.4263L628.849 25.7063C626.907 26.4075 625.335 26.8991 624.542 27.0526C624.321 27.0961 624.117 27.1314 624.094 27.1314C624.072 27.1314 624.231 26.9136 624.449 26.6502C625.042 25.9262 625.685 25.1027 625.856 24.8496C625.939 24.7272 626.021 24.6235 626.04 24.6235C626.059 24.6256 626.312 24.7065 626.609 24.8081ZM629.502 26.4427C629.168 27.3057 628.924 27.8305 628.836 27.8637C628.67 27.928 626.378 27.5898 625.679 27.4011C625.215 27.2745 624.918 27.1522 625.005 27.121C625.038 27.1086 625.37 27.0318 625.746 26.9468C626.959 26.673 628.809 26.1108 629.575 25.7831C629.674 25.7416 629.762 25.7105 629.768 25.7167C629.772 25.7229 629.654 26.0486 629.502 26.4427Z" fill="white"></path><rect x="1434" y="37" width="55" height="55" rx="6" fill="#1D1D1D"></rect><g clip-path="url(#clip0_499_1003)"><path d="M1452.27 60.7016H1474.54V77.1622H1452.27V60.7016Z" fill="white"></path><path d="M1447.54 64.4799V78.4447H1475.46V50.515H1447.54V64.4799ZM1470.04 63.3627C1470.71 63.5179 1471.32 63.8678 1471.79 64.3682C1472.05 64.6377 1472.27 64.9379 1472.46 65.2619C1472.46 65.2977 1471.25 66.1132 1470.52 66.569C1470.49 66.5869 1470.38 66.4707 1470.27 66.2942C1470.13 66.0626 1469.94 65.8689 1469.71 65.7309C1469.48 65.593 1469.22 65.5154 1468.95 65.5055C1468.11 65.4474 1467.56 65.892 1467.57 66.6227C1467.56 66.8046 1467.6 66.985 1467.69 67.1455C1467.87 67.532 1468.22 67.7622 1469.3 68.2314C1471.3 69.0916 1472.16 69.6592 1472.69 70.4658C1473.29 71.3595 1473.42 72.8029 1473.02 73.871C1472.57 75.0328 1471.47 75.8216 1469.93 76.083C1469.22 76.164 1468.5 76.1565 1467.8 76.0607C1466.72 75.8825 1465.72 75.3634 1464.96 74.5793C1464.7 74.2955 1464.2 73.5559 1464.23 73.5023C1464.31 73.4417 1464.4 73.3872 1464.49 73.3392L1465.52 72.7672L1466.32 72.3024L1466.49 72.5505C1466.77 72.955 1467.13 73.2997 1467.55 73.5649C1468.44 74.0341 1469.66 73.9693 1470.27 73.4263C1470.47 73.2274 1470.6 72.9637 1470.62 72.6812C1470.65 72.3986 1470.58 72.1152 1470.42 71.8801C1470.2 71.5696 1469.75 71.3081 1468.5 70.763C1467.06 70.1418 1466.44 69.7575 1465.87 69.1453C1465.52 68.7413 1465.26 68.2646 1465.11 67.7488C1464.99 67.1595 1464.98 66.5559 1465.06 65.9613C1465.35 64.5693 1466.4 63.5973 1467.92 63.3091C1468.63 63.2218 1469.34 63.2413 1470.04 63.3672V63.3627ZM1463.49 64.5335V65.6775H1459.86V76.007H1457.29V65.6753H1453.65V64.5581C1453.64 64.1728 1453.65 63.7872 1453.68 63.4029C1453.7 63.3828 1455.91 63.3828 1458.6 63.3828H1463.47L1463.49 64.5335Z" fill="#007ACC"></path></g><rect x="110" y="35" width="55" height="55" rx="6" fill="#1D1D1D"></rect><g clip-path="url(#clip1_499_1003)"><path d="M137.5 65.8059C139.365 65.8059 140.877 64.3258 140.877 62.5C140.877 60.6742 139.365 59.1941 137.5 59.1941C135.635 59.1941 134.123 60.6742 134.123 62.5C134.123 64.3258 135.635 65.8059 137.5 65.8059Z" fill="#61DAFB"></path><path d="M137.5 69.273C147.508 69.273 155.621 66.2406 155.621 62.5C155.621 58.7594 147.508 55.727 137.5 55.727C127.493 55.727 119.38 58.7594 119.38 62.5C119.38 66.2406 127.493 69.273 137.5 69.273Z" stroke="#61DAFB"></path><path d="M131.508 65.8865C136.512 74.3709 143.252 79.7327 146.561 77.8623C149.87 75.992 148.496 67.5979 143.492 59.1135C138.488 50.6291 131.749 45.2673 128.44 47.1376C125.131 49.008 126.505 57.4021 131.508 65.8865Z" stroke="#61DAFB"></path><path d="M131.509 59.1135C126.505 67.5979 125.131 75.992 128.44 77.8623C131.749 79.7327 138.488 74.3709 143.492 65.8865C148.496 57.4021 149.87 49.008 146.561 47.1376C143.252 45.2673 136.512 50.6291 131.509 59.1135Z" stroke="#61DAFB"></path></g><rect x="1400" y="181" width="75" height="75" rx="6" fill="#1D1D1D"></rect><path d="M1457.65 206.193L1439.8 195.918C1439.5 195.733 1439.1 195.659 1438.65 195.659C1438.21 195.659 1437.8 195.77 1437.51 195.918L1419.77 206.23C1419.14 206.599 1418.7 207.523 1418.7 208.225V228.812C1418.7 229.218 1418.77 229.699 1419.07 230.105L1458.54 207.191C1458.32 206.747 1457.98 206.414 1457.65 206.193Z" fill="#68217A"></path><path d="M1418.95 230.068C1419.14 230.364 1419.4 230.623 1419.66 230.77L1437.47 241.082C1437.77 241.267 1438.17 241.341 1438.62 241.341C1439.06 241.341 1439.47 241.23 1439.76 241.082L1457.5 230.77C1458.13 230.401 1458.57 229.477 1458.57 228.775V208.188C1458.57 207.856 1458.54 207.486 1458.35 207.154L1418.95 230.068Z" fill="#68217A"></path><path d="M1446.53 222.972C1444.97 225.707 1442.02 227.555 1438.65 227.555C1433.66 227.555 1429.6 223.489 1429.6 218.5C1429.6 213.511 1433.66 209.445 1438.65 209.445C1442.02 209.445 1444.97 211.293 1446.53 214.065L1451.33 211.293C1448.82 206.895 1444.09 203.901 1438.65 203.901C1430.6 203.901 1424.05 210.443 1424.05 218.5C1424.05 226.557 1430.6 233.099 1438.65 233.099C1444.05 233.099 1448.78 230.142 1451.29 225.781L1446.53 222.972ZM1450.85 219.313L1451.18 217.724H1449.63V215.987H1451.52L1451.96 213.695H1453.77L1453.33 215.95H1454.73L1455.17 213.695H1456.95L1456.51 215.95H1457.39V217.687H1456.17L1455.84 219.276H1457.39V221.013H1455.51L1455.06 223.231H1453.25L1453.7 221.013H1452.29L1451.85 223.231H1450.07L1450.52 221.013H1449.63V219.276H1450.85V219.313ZM1452.62 219.313H1454.03L1454.36 217.724H1452.96L1452.62 219.313Z" fill="white"></path><rect x="150" y="192" width="75" height="75" rx="6" fill="#1D1D1D"></rect><g clip-path="url(#clip2_499_1003)"><path d="M167.752 209.752H207.248V249.248H167.752V209.752Z" fill="#F0DB4F"></path><path d="M204.016 239.828C203.727 238.027 202.552 236.513 199.071 235.102C197.862 234.546 196.514 234.148 196.113 233.232C195.97 232.699 195.951 232.399 196.041 232.076C196.301 231.028 197.551 230.702 198.542 231.002C199.18 231.216 199.784 231.708 200.149 232.493C201.853 231.389 201.85 231.396 203.04 230.638C202.604 229.962 202.371 229.65 202.086 229.361C201.061 228.217 199.664 227.627 197.431 227.672L196.267 227.822C195.152 228.104 194.089 228.689 193.466 229.474C191.597 231.596 192.13 235.308 194.405 236.836C196.646 238.519 199.939 238.901 200.359 240.475C200.769 242.4 198.944 243.024 197.131 242.802C195.794 242.524 195.051 241.845 194.247 240.61C192.768 241.466 192.768 241.466 191.247 242.34C191.608 243.129 191.987 243.486 192.591 244.169C195.452 247.071 202.612 246.928 203.896 242.536C203.948 242.385 204.294 241.379 204.016 239.828ZM189.223 227.904H185.529L185.514 237.455C185.514 239.487 185.619 241.349 185.289 241.92C184.748 243.042 183.348 242.903 182.71 242.685C182.06 242.366 181.73 241.912 181.347 241.27C181.242 241.086 181.163 240.943 181.136 240.932L178.133 242.772C178.632 243.797 179.368 244.686 180.31 245.265C181.718 246.109 183.61 246.368 185.589 245.914C186.877 245.539 187.988 244.762 188.57 243.579C189.411 242.028 189.231 240.151 189.223 238.075C189.242 234.688 189.223 231.302 189.223 227.904Z" fill="#1D1D1D"></path></g><rect x="977" y="111" width="65" height="65" rx="6" fill="#1D1D1D"></rect><g clip-path="url(#clip3_499_1003)"><path d="M1005.56 142.93H1012.61L1008.86 135.092L1005.56 142.93ZM1008.87 123.855L990.923 130.171L993.759 153.688L1008.89 162.005L1024.1 153.576L1026.94 130.06L1008.87 123.855ZM1004.1 146.262L1001.9 151.767L997.782 151.784L1008.87 127.225L1008.85 127.179H1008.83L1008.83 127.138L1008.85 127.179H1008.89L1008.93 127.096V127.179H1008.89L1008.87 127.225L1020.44 151.887L1016.48 151.8L1014.04 146.172L1008.84 146.197" fill="#C4473A"></path></g><rect x="1108" y="5" width="45" height="45" rx="6" fill="#1D1D1D"></rect><path fill-rule="evenodd" clip-rule="evenodd" d="M1138.31 25.094C1138.21 23.7796 1137.9 22.512 1137.48 21.2703C1136.59 18.4976 1135.16 16.0438 1133.16 13.9325C1132.65 13.3985 1132.08 12.9092 1131.73 12.2446C1131.51 11.8242 1131.29 11.398 1131.07 10.9743L1130.94 10.625C1130.91 10.7051 1130.9 10.7337 1130.9 10.7625C1130.88 11.4532 1130.49 11.9216 1130 12.3587C1129.46 12.8508 1128.95 13.3848 1128.42 13.9004L1126.81 16.0307C1126.37 16.8333 1125.94 17.636 1125.5 18.4386L1124.63 20.8033L1124.6 20.84C1124.12 22.4229 1123.88 24.0501 1123.77 25.6939C1123.72 26.3116 1123.77 26.9383 1123.81 27.5593C1123.86 28.447 1124.01 29.3197 1124.24 30.1786C1125.08 33.2992 1126.78 35.8878 1129.11 38.0869C1129.54 38.4955 1129.98 38.8671 1130.43 39.2559C1130.51 38.9911 1130.57 38.7263 1130.64 38.4615C1130.71 38.1978 1130.78 37.9354 1130.83 37.6709C1130.78 37.9354 1130.73 38.1978 1130.68 38.4615L1130.45 39.2559L1130.65 39.9422L1130.84 41.008L1130.93 42.1202C1130.93 42.3461 1130.92 42.5725 1130.93 42.798C1130.94 42.8557 1131.01 42.9089 1131.05 42.9643L1131.43 43.0969L1131.82 43.25L1131.76 42.2613L1131.75 41.2877L1131.89 39.8045L1131.99 39.4815L1132.27 38.982C1132.61 38.7021 1132.99 38.448 1133.3 38.1366C1133.88 37.5729 1134.45 37.0022 1134.96 36.385C1135.62 35.5851 1136.19 34.7085 1136.65 33.7737C1136.96 33.1469 1137.25 32.5075 1137.49 31.8525C1137.7 31.2752 1137.83 30.6684 1138 30.0746C1138.01 30.0318 1138.03 29.9898 1138.04 29.9462C1138.38 28.3433 1138.44 26.7243 1138.31 25.094Z" fill="#4FAA41"></path><circle cx="187" cy="299" r="6" fill="#781E82"></circle><circle cx="420" cy="337" r="6" fill="#323232"></circle><circle cx="986" cy="353" r="6" fill="#323232"></circle><circle cx="1258" cy="327" r="6" fill="#323232"></circle><circle cx="362" cy="71" r="4" fill="#323232"></circle><circle cx="1340" cy="87" r="5" fill="#323232"></circle><circle cx="137" cy="112" r="5" fill="#781E82"></circle><circle cx="629" cy="49" r="4" fill="#781E82"></circle><circle cx="1131" cy="60" r="4" fill="#781E82"></circle><circle cx="1438" cy="292" r="6" fill="#781E82"></circle><circle cx="1462" cy="115" r="5" fill="#781E82"></circle><circle cx="1009" cy="202" r="6" fill="#781E82"></circle><circle cx="665" cy="208" r="6" fill="#323232"></circle><circle cx="1309" cy="143" r="5" fill="#781E82"></circle><circle cx="281" cy="114" r="5" fill="#323232"></circle><circle cx="964" cy="50" r="4" fill="#323232"></circle><circle cx="402" cy="181" r="6" fill="#781E82"></circle><rect x="1279" y="64" width="60" height="60" rx="6" fill="#1D1D1D"></rect><g clip-path="url(#clip4_499_1003)"><circle cx="1309" cy="94" r="17.7273" fill="white"></circle><path d="M1308.15 74.5H1309.65C1313.59 74.663 1317.48 75.9899 1320.64 78.3622C1323.63 80.5831 1325.96 83.6751 1327.26 87.1695C1328 89.1156 1328.37 91.1853 1328.5 93.2608V94.5439C1328.37 97.9847 1327.38 101.405 1325.54 104.319C1323.46 107.638 1320.38 110.33 1316.78 111.884C1314.43 112.905 1311.9 113.454 1309.33 113.5H1308.68C1305.1 113.442 1301.54 112.385 1298.53 110.456C1295.12 108.288 1292.4 105.037 1290.91 101.279C1290.08 99.2376 1289.63 97.053 1289.5 94.8568V93.3464C1289.65 88.962 1291.31 84.6296 1294.2 81.3125C1296.56 78.5554 1299.71 76.4744 1303.18 75.3949C1304.79 74.887 1306.46 74.6249 1308.15 74.5ZM1297.18 85.9328C1297.17 89.6357 1297.17 93.3382 1297.17 97.0399C1297.61 97.0432 1298.04 97.0432 1298.48 97.0432C1298.46 93.8644 1298.51 90.6865 1298.45 87.5086C1298.59 87.785 1298.73 88.0693 1298.89 88.3334C1300.78 91.2304 1302.63 94.1523 1304.52 97.0469C1305.05 97.0399 1305.58 97.0399 1306.11 97.0481C1306.11 93.3431 1306.11 89.6381 1306.11 85.9331C1305.68 85.9289 1305.25 85.9277 1304.82 85.9294C1304.84 89.0738 1304.78 92.2182 1304.86 95.3592C1302.87 92.2051 1300.87 89.0689 1298.86 85.9307C1298.3 85.9272 1297.74 85.9279 1297.18 85.9328ZM1309.01 85.9294C1308.97 89.6344 1309.01 93.3394 1309 97.0432C1310.97 97.0386 1312.94 97.0505 1314.91 97.0371C1314.9 96.6357 1314.91 96.2343 1314.92 95.833C1313.39 95.8281 1311.86 95.8351 1310.33 95.8269C1310.31 94.5442 1310.33 93.2596 1310.32 91.9766C1311.66 91.9528 1313 91.9802 1314.34 91.9623C1314.33 91.5732 1314.33 91.1841 1314.33 90.7947C1313 90.8376 1311.66 90.7782 1310.32 90.7983C1310.32 89.5726 1310.33 88.3456 1310.33 87.1183C1311.76 87.1183 1313.19 87.1122 1314.62 87.122C1314.62 86.7256 1314.62 86.328 1314.63 85.9319C1312.75 85.927 1310.88 85.9294 1309.01 85.9294ZM1315.9 85.9459C1315.9 86.3316 1315.9 86.7161 1315.9 87.1007C1316.96 87.0885 1318.02 87.1339 1319.09 87.1113C1319.08 90.4211 1319.09 93.7285 1319.08 97.0362C1319.53 97.0493 1319.98 97.0469 1320.42 97.0088C1320.38 95.1831 1320.46 93.3562 1320.37 91.5314C1320.39 90.7091 1320.35 89.8879 1320.41 89.0665C1320.44 88.4145 1320.32 87.7634 1320.4 87.1113C1321.47 87.1256 1322.54 87.1159 1323.61 87.1159C1323.61 86.7266 1323.62 86.3372 1323.64 85.9483C1321.06 85.9163 1318.48 85.9197 1315.9 85.9459ZM1293.63 95.5521C1293.03 95.8293 1292.99 96.7778 1293.58 97.0837C1294.11 97.4433 1294.89 96.9707 1294.87 96.3494C1294.91 95.7389 1294.17 95.2258 1293.63 95.5521ZM1302.53 100.21C1301.23 101.267 1301.25 103.621 1302.69 104.552C1303.5 105.069 1304.55 104.962 1305.41 104.618C1305.41 104.429 1305.41 104.24 1305.42 104.051C1304.61 104.476 1303.47 104.563 1302.78 103.865C1301.87 102.879 1302.08 101.041 1303.27 100.369C1303.94 100.014 1304.76 100.118 1305.43 100.441C1305.43 100.24 1305.43 100.039 1305.43 99.8381C1304.48 99.5033 1303.32 99.5212 1302.53 100.21ZM1307.78 101.036C1307.2 101.103 1306.63 101.408 1306.37 101.94C1305.98 102.7 1306.03 103.727 1306.63 104.365C1307.25 105.065 1308.44 105.072 1309.12 104.456C1309.86 103.752 1309.94 102.485 1309.35 101.664C1309 101.167 1308.35 100.998 1307.78 101.036ZM1313.23 101.866C1312.72 102.744 1312.82 104.075 1313.71 104.672C1314.38 105.044 1315.22 104.926 1315.87 104.578C1315.87 104.39 1315.87 104.202 1315.88 104.015C1315.36 104.341 1314.68 104.581 1314.11 104.252C1313.71 104.032 1313.59 103.564 1313.52 103.148C1314.4 103.136 1315.28 103.123 1316.15 103.125C1316.13 102.568 1316.12 101.939 1315.71 101.508C1315.04 100.767 1313.69 101.003 1313.23 101.866ZM1310.66 101.154V104.813C1310.86 104.813 1311.06 104.813 1311.26 104.814C1311.27 104.145 1311.25 103.475 1311.27 102.805C1311.28 102.418 1311.43 102.025 1311.72 101.765C1311.97 101.58 1312.3 101.682 1312.58 101.69C1312.57 101.496 1312.57 101.303 1312.57 101.11C1312.02 100.989 1311.55 101.309 1311.28 101.755C1311.27 101.562 1311.27 101.369 1311.26 101.178C1311.06 101.171 1310.86 101.163 1310.66 101.154Z" fill="#623697"></path><path d="M1307.4 101.685C1307.91 101.44 1308.63 101.56 1308.91 102.081C1309.23 102.656 1309.22 103.417 1308.87 103.974C1308.4 104.67 1307.18 104.518 1306.88 103.748C1306.57 103.06 1306.69 102.077 1307.4 101.685ZM1313.58 102.657C1313.6 102.178 1313.93 101.702 1314.41 101.597C1314.71 101.547 1315.05 101.599 1315.26 101.839C1315.46 102.056 1315.51 102.361 1315.56 102.643C1314.9 102.647 1314.24 102.634 1313.58 102.657Z" fill="#623697"></path></g><rect x="671" y="252" width="75" height="75" rx="6" fill="#1D1D1D"></rect><path d="M726.219 276.971L709.881 267.442C708.851 266.853 707.509 266.853 706.471 267.442L689.959 276.971C688.895 277.585 688.143 278.74 688.143 279.975V299.008C688.143 300.243 688.915 301.398 689.978 302.016L694.341 304.505C696.426 305.536 697.163 305.536 698.112 305.536C701.199 305.536 702.963 303.661 702.963 300.39V281.601C702.963 281.335 702.825 280.94 702.566 280.94H700.482C700.219 280.94 699.628 281.335 699.628 281.6V300.39C699.628 301.84 698.323 303.283 695.882 302.057L691.375 299.447C691.218 299.362 691.107 299.189 691.107 299.008V279.975C691.107 279.796 691.312 279.616 691.471 279.524L707.929 270.011C708.083 269.924 708.309 269.924 708.463 270.011L724.721 279.522C724.876 279.616 724.821 279.79 724.821 279.975V299.008C724.821 299.189 724.889 299.366 724.735 299.454L708.402 308.972C708.262 309.056 708.088 309.056 707.935 308.972L703.745 306.46C703.619 306.386 703.469 306.36 703.348 306.428C702.182 307.092 701.967 307.18 700.874 307.561C700.605 307.655 700.208 307.818 701.026 308.278L706.509 311.536C707.032 311.84 707.626 312 708.23 312C708.839 312 709.434 311.841 709.959 311.536L726.218 302.016C727.282 301.394 727.786 300.243 727.786 299.008V279.975C727.786 278.74 727.282 277.588 726.219 276.971ZM713.303 295.992C708.959 295.992 708.002 294.788 707.683 292.618C707.646 292.384 707.448 292.105 707.211 292.105H705.088C704.825 292.105 704.614 292.425 704.614 292.688C704.614 295.466 706.118 298.833 713.303 298.833C718.505 298.833 721.487 296.803 721.487 293.21C721.487 289.648 719.091 288.713 714.047 288.042C708.948 287.365 708.43 287.023 708.43 285.823C708.43 284.834 708.869 283.515 712.644 283.515C716.017 283.515 717.261 284.242 717.772 286.526C717.816 286.741 718.011 286.895 718.232 286.895H720.364C720.495 286.895 720.62 286.842 720.712 286.747C720.801 286.646 720.848 286.519 720.836 286.383C720.506 282.45 717.905 280.617 712.644 280.617C707.964 280.617 705.172 282.602 705.172 285.93C705.172 289.539 707.95 290.536 712.442 290.982C717.816 291.512 718.234 292.301 718.234 293.362C718.234 295.206 716.76 295.992 713.303 295.992Z" fill="#83CD29"></path><defs><linearGradient id="paint0_linear_499_1003" x1="828.256" y1="123.631" x2="777.425" y2="23.0908" gradientUnits="userSpaceOnUse"><stop stop-color="#781E82"></stop><stop offset="1" stop-color="#CC0957"></stop></linearGradient><linearGradient id="paint1_linear_499_1003" x1="806.314" y1="134.724" x2="755.264" y2="33.7507" gradientUnits="userSpaceOnUse"><stop offset="0.16" stop-color="#781E82"></stop><stop offset="1" stop-color="#CC0957"></stop></linearGradient><linearGradient id="paint2_linear_499_1003" x1="850.034" y1="112.62" x2="799.564" y2="12.7926" gradientUnits="userSpaceOnUse"><stop offset="0.15" stop-color="#781E82"></stop><stop offset="1" stop-color="#CC0957"></stop></linearGradient><radialGradient id="paint3_radial_499_1003" cx="0" cy="0" r="1" gradientUnits="userSpaceOnUse" gradientTransform="translate(797 139) rotate(-90) scale(16 70.7417)"><stop></stop><stop offset="0.0001" stop-color="#494949"></stop><stop offset="1" stop-color="#434343" stop-opacity="0"></stop></radialGradient><linearGradient id="paint4_linear_499_1003" x1="381.639" y1="107.639" x2="404.61" y2="127.213" gradientUnits="userSpaceOnUse"><stop stop-color="#5A9FD4"></stop><stop offset="1" stop-color="#306998"></stop></linearGradient><linearGradient id="paint5_linear_499_1003" x1="407.619" y1="143.879" x2="399.379" y2="132.331" gradientUnits="userSpaceOnUse"><stop stop-color="#FFD43B"></stop><stop offset="1" stop-color="#FFE873"></stop></linearGradient><clipPath id="clip0_499_1003"><rect width="28.6" height="28.6" fill="white" transform="translate(1447.2 50.2)"></rect></clipPath><clipPath id="clip1_499_1003"><rect width="37.8889" height="33" fill="white" transform="translate(118.556 46)"></rect></clipPath><clipPath id="clip2_499_1003"><rect width="40.3846" height="40.3846" fill="white" transform="translate(167.308 209.308)"></rect></clipPath><clipPath id="clip3_499_1003"><rect width="38.7719" height="38.7719" fill="white" transform="translate(989.544 123.544)"></rect></clipPath><clipPath id="clip4_499_1003"><rect width="39" height="39" fill="white" transform="translate(1289.5 74.5)"></rect></clipPath></defs></svg>